<?xml version="1.0" encoding="UTF-8"?>
<!DOCTYPE svg PUBLIC "-//W3C//DTD SVG 1.1//EN" "http://www.w3.org/Graphics/SVG/1.1/DTD/svg11.dtd">
<!-- Creator: CorelDRAW -->
<svg xmlns="http://www.w3.org/2000/svg" xml:space="preserve" width="413px" height="413px" version="1.1" style="shape-rendering:geometricPrecision; text-rendering:geometricPrecision; image-rendering:optimizeQuality; fill-rule:evenodd; clip-rule:evenodd"
viewBox="0 0 413 413"
 xmlns:xlink="http://www.w3.org/1999/xlink"
 xmlns:xodm="http://www.corel.com/coreldraw/odm/2003">
 <defs>
  <style type="text/css">
   <![CDATA[
    .str0 {stroke:#2B2A29;stroke-width:0.9;stroke-miterlimit:22.9256}
    .fil0 {fill:none}
    .fil4 {fill:#2B2A29}
    .fil3 {fill:#040000}
    .fil1 {fill:#270B09}
    .fil2 {fill:#F90102}
    .fil5 {fill:#FBFBFB}
   ]]>
  </style>
 </defs>
 <rect class="fil0" x="-0.31" y="0.31" width="413" height="413"/>
 <g id="_2336423601200">
  <path class="fil1" d="M64.59 198.48c0,43.91 10.21,77.79 41.18,108.75 11.14,11.14 23.72,20.55 39.02,27.62 17.43,8.05 35.56,12.57 53.78,13.56l15.24 0c18.22,-0.99 36.36,-5.51 53.79,-13.56 28.41,-13.13 53.5,-38.23 66.63,-66.64 8.06,-17.43 12.58,-35.56 13.56,-53.78l0 -15.24c-0.98,-18.22 -5.5,-36.36 -13.56,-53.79 -20.65,-44.68 -71.72,-80.19 -119.71,-80.19 -43.8,0 -78.21,10.63 -108.75,41.17 -22.77,22.77 -41.18,59.58 -41.18,92.1z"/>
  <path class="fil2 str0" d="M183.27 74.16c-37.59,7.54 -62.32,22.98 -83.82,49.96 -19.42,24.38 -34.01,66.2 -26.12,106.56 12.75,65.13 76,124.73 156.51,108.97 65.67,-12.85 123.81,-74.25 109.25,-156.54 -11.32,-64 -76.31,-124.91 -155.82,-108.95z"/>
  <path class="fil3" d="M184.16 119.62c-3.59,2.39 -7.8,5.38 -9.43,9.76l-1.38 10.62 4.79 23.52 -20.06 19.45 -7.02 -21.52 -5.02 -3.08c-11.99,5.19 -15.04,4.46 -18.85,5.89 -4.67,1.76 -2.63,0.67 -5.56,3.52l5.77 17.18 3.33 6.11c-9.49,6.18 -11.54,0.85 -24.78,3.71l1.92 10.1c0.04,6.49 15.1,44.06 18.65,57.65 6.54,25.02 23.73,30.74 51.14,24.75 24.01,-5.25 30.76,-19.41 43.94,-33.57 22.47,-24.16 39.11,-27.5 44.76,-33.05 0.08,-10.58 -22.66,-58.83 -28.28,-72.28 -6.05,-14.46 -5.75,-21.51 -13.06,-20.51l-18.35 6.83 -10.53 -15.52c-3.51,-2.84 -1.28,-1.55 -5.54,-2.15l-6.44 2.59z"/>
  <path class="fil4 str0" d="M184.16 119.62l6.44 -2.59c4.26,0.6 2.03,-0.69 5.54,2.15 1.29,-9.1 13.46,-13.09 22.3,-13.84 2.39,8.64 7.32,14.22 6.58,22.53 7.31,-1 7.01,6.05 13.06,20.51 5.62,13.45 28.36,61.7 28.28,72.28 7.95,-0.22 7.58,3.17 10.74,11.35 2.11,5.43 4.26,10.61 6.32,15.77 6.54,16.45 7.37,26 16.25,26.5 2.99,-7.04 -29.57,-79.45 -34.24,-91.25 -5.39,-13.64 -33.06,-86.47 -39.8,-91.78 -5.68,2.79 -3.73,0.22 -3.72,9.01 -9.49,-1.31 -14.66,2.09 -21.62,5.98 -7.17,4 -12.5,6.95 -16.13,13.38z"/>
  <path class="fil5" d="M172.26 218.67c1.71,6.82 6.43,20.86 10.8,25.29 4.14,-2.55 17.68,-15.1 19.01,-18.93 2.14,-6.15 -5.69,-22.41 -9.76,-26.2l-20.05 19.84z"/>
  <path class="fil5" d="M184.78 161.25c0.74,9.53 6.21,17.86 8.59,27.26 8.87,-3.15 17.05,-12.74 21.83,-19.65l-9.26 -25.76 -21.16 18.15z"/>
  <path class="fil4 str0" d="M107.87 204.88l-1.92 -10.1c13.24,-2.86 15.29,2.47 24.78,-3.71l-3.33 -6.11 0.83 6.5 -22.59 -0.25 -11.39 -28.91 27.38 5.48c2.93,-2.85 0.89,-1.76 5.56,-3.52 3.81,-1.43 6.86,-0.7 18.85,-5.89l5.02 3.08c2.95,-9.6 -1.19,-0.03 10.87,-11.84 3.39,-3.32 6.68,-7.98 11.42,-9.61l1.38 -10.62 -8.53 7.92c-2.51,3.36 -3.42,4.58 -6.87,7.86 -29.48,28.03 -56.11,11.39 -71.41,10.17 0.26,6.42 12.98,42.78 19.95,49.55z"/>
  <path class="fil5" d="M160.1 257.71l6.26 27.22c11.72,-0.94 18.2,-4.18 26.67,-7.61l-11.84 -25.19c-7.39,0.38 -15.48,2.2 -21.09,5.58z"/>
  <path class="fil5" d="M209.51 224.39l9.98 23.84 19.57 -15.96c-2.15,-8.94 -5.45,-20.56 -9.73,-26.75 -7.88,3.74 -13.44,10.95 -19.82,18.87z"/>
  <path class="fil5" d="M221.48 170.02l9.85 26.48 20.78 -8.37c-2.19,-9.48 -6.57,-20.38 -11.67,-26.66l-18.96 8.55z"/>
  <path class="fil5" d="M128 251.55l25.14 1.39c-1.24,-5.37 -3.05,-9.34 -4.88,-14.07 -2.53,-6.56 -2.02,-8.44 -7.16,-11.92l-21.92 -3.49 8.82 28.09z"/>
  <polygon class="fil5" points="127.4,184.96 121.63,167.78 94.25,162.3 105.64,191.21 128.23,191.46 "/>
  <path class="fil5" d="M151.06 161.45l7.02 21.52 20.06 -19.45 -4.79 -23.52c-4.74,1.63 -8.03,6.29 -11.42,9.61 -12.06,11.81 -7.92,2.24 -10.87,11.84z"/>
  <path class="fil5" d="M196.14 119.18l10.53 15.52 18.35 -6.83c0.74,-8.31 -4.19,-13.89 -6.58,-22.53 -8.84,0.75 -21.01,4.74 -22.3,13.84z"/>
  <path class="fil5" d="M136.11 196.63l9.42 24.45 20.09 -3.7 -9.57 -26.85 -18.58 5.24c-0.33,0.19 -0.94,0.53 -1.36,0.86z"/>
 </g>
</svg>
