<?xml version="1.0" encoding="UTF-8"?>
<!DOCTYPE svg PUBLIC "-//W3C//DTD SVG 1.1//EN" "http://www.w3.org/Graphics/SVG/1.1/DTD/svg11.dtd">
<!-- Creator: CorelDRAW -->
<svg xmlns="http://www.w3.org/2000/svg" xml:space="preserve" width="1291px" height="1291px" version="1.1" style="shape-rendering:geometricPrecision; text-rendering:geometricPrecision; image-rendering:optimizeQuality; fill-rule:evenodd; clip-rule:evenodd"
viewBox="0 0 1291 1291"
 xmlns:xlink="http://www.w3.org/1999/xlink"
 xmlns:xodm="http://www.corel.com/coreldraw/odm/2003">
 <defs>
  <style type="text/css">
   <![CDATA[
    .fil0 {fill:none}
    .fil3 {fill:black}
    .fil2 {fill:red}
    .fil1 {fill:black;fill-rule:nonzero}
   ]]>
  </style>
 </defs>
 <g id="Layer_x0020_1">
  <metadata id="CorelCorpID_0Corel-Layer"/>
  <rect class="fil0" x="-0.69" y="0.69" width="1291" height="1291"/>
  <g id="_2306589052176">
   <g>
    <path class="fil1" d="M644.81 203.15c122.33,0 233.12,49.6 313.28,129.76 80.16,80.16 129.76,190.95 129.76,313.28 0,122.33 -49.6,233.12 -129.76,313.28 -80.16,80.15 -190.95,129.76 -313.28,129.76 -122.33,0 -233.12,-49.61 -313.28,-129.76 -80.15,-80.16 -129.76,-190.95 -129.76,-313.28 0,-122.33 49.61,-233.12 129.76,-313.28 80.16,-80.16 190.95,-129.76 313.28,-129.76zm297.15 145.89c-76.04,-76.04 -181.1,-123.08 -297.15,-123.08 -116.04,0 -221.11,47.04 -297.15,123.08 -76.03,76.04 -123.08,181.1 -123.08,297.15 0,116.04 47.05,221.11 123.08,297.15 76.04,76.03 181.11,123.08 297.15,123.08 116.05,0 221.11,-47.05 297.15,-123.08 76.04,-76.04 123.08,-181.11 123.08,-297.15 0,-116.05 -47.04,-221.11 -123.08,-297.15z"/>
    <path class="fil2" d="M644.81 214.55c238.39,0 431.64,193.25 431.64,431.64 0,238.38 -193.25,431.64 -431.64,431.64 -238.38,0 -431.64,-193.26 -431.64,-431.64 0,-238.39 193.26,-431.64 431.64,-431.64z"/>
   </g>
   <path class="fil3" d="M692.14 290.74l266.91 577.93 -20.66 9.53 -266.9 -577.93 20.65 -9.53zm-274.59 578.17c7.24,13.98 20.44,27.88 50.3,40.28 47.86,19.89 112.1,12.72 152.05,-12.28 29.75,-18.61 114.02,-191.56 177.71,-209.32 8.61,-13.93 10.21,-9.84 22.07,-21.19l-163.85 -345c-80.77,-3.17 -134.92,136.49 -151.51,158.25 -76.2,99.93 -169.86,65.62 -226.17,57.62 1.23,12.83 115.5,285.58 139.4,331.64z"/>
  </g>
 </g>
</svg>
